HIERARCHY
ROOT Hips
{
	OFFSET 0.00000 0.00000 0.00000
	CHANNELS 6 Xposition Yposition Zposition Zrotation Yrotation Xrotation 
	JOINT LHipJoint
	{
		OFFSET 0 0 0
		CHANNELS 3 Zrotation Yrotation Xrotation
		JOINT LeftUpLeg
		{
			OFFSET 1.58161 -1.81893 0.78828
			CHANNELS 3 Zrotation Yrotation Xrotation
			JOINT LeftLeg
			{
				OFFSET 2.53374 -6.96141 0.00000
				CHANNELS 3 Zrotation Yrotation Xrotation
				JOINT LeftFoot
				{
					OFFSET 2.63509 -7.23986 0.00000
					CHANNELS 3 Zrotation Yrotation Xrotation
					JOINT LeftToeBase
					{
						OFFSET 0.14115 -0.38781 2.05350
						CHANNELS 3 Zrotation Yrotation Xrotation
						End Site
						{
							OFFSET 0.00000 -0.00000 1.05543
						}
					}
				}
			}
		}
	}
	JOINT RHipJoint
	{
		OFFSET 0 0 0
		CHANNELS 3 Zrotation Yrotation Xrotation
		JOINT RightUpLeg
		{
			OFFSET -1.11138 -1.81893 0.78828
			CHANNELS 3 Zrotation Yrotation Xrotation
			JOINT RightLeg
			{
				OFFSET -2.58392 -7.09926 0.00000
				CHANNELS 3 Zrotation Yrotation Xrotation
				JOINT RightFoot
				{
					OFFSET -2.66423 -7.31992 0.00000
					CHANNELS 3 Zrotation Yrotation Xrotation
					JOINT RightToeBase
					{
						OFFSET -0.18831 -0.51739 2.12114
						CHANNELS 3 Zrotation Yrotation Xrotation
						End Site
						{
							OFFSET -0.00000 -0.00000 1.09845
						}
					}
				}
			}
		}
	}
	JOINT LowerBack
	{
		OFFSET 0 0 0
		CHANNELS 3 Zrotation Yrotation Xrotation
		JOINT Spine
		{
			OFFSET -0.01511 1.97958 -0.08829
			CHANNELS 3 Zrotation Yrotation Xrotation
			JOINT Spine1
			{
				OFFSET 0.08344 1.97334 -0.04330
				CHANNELS 3 Zrotation Yrotation Xrotation
				JOINT Neck
				{
					OFFSET 0 0 0
					CHANNELS 3 Zrotation Yrotation Xrotation
					JOINT Neck1
					{
						OFFSET 0.00559 1.76246 0.31246
						CHANNELS 3 Zrotation Yrotation Xrotation
						JOINT Head
						{
							OFFSET -0.07011 1.80354 -0.30524
							CHANNELS 3 Zrotation Yrotation Xrotation
							End Site
							{
								OFFSET -0.02385 1.83547 -0.13906
							}
						}
					}
				}
				JOINT LeftShoulder
				{
					OFFSET 0 0 0
					CHANNELS 3 Zrotation Yrotation Xrotation
					JOINT LeftArm
					{
						OFFSET 3.20667 1.30156 -0.60240
						CHANNELS 3 Zrotation Yrotation Xrotation
						JOINT LeftForeArm
						{
							OFFSET 4.95663 -0.00000 0.00000
							CHANNELS 3 Zrotation Yrotation Xrotation
							JOINT LeftHand
							{
								OFFSET 3.38177 -0.00000 0.00000
								CHANNELS 3 Zrotation Yrotation Xrotation
								JOINT LeftFingerBase
								{
									OFFSET 0 0 0
									CHANNELS 3 Zrotation Yrotation Xrotation
									JOINT LeftHandIndex1
									{
										OFFSET 0.66291 -0.00000 0.00000
										CHANNELS 3 Zrotation Yrotation Xrotation
										End Site
										{
											OFFSET 0.53445 -0.00000 0.00000
										}
									}
								}
								JOINT LThumb
								{
									OFFSET 0 0 0
									CHANNELS 3 Zrotation Yrotation Xrotation
									End Site
									{
										OFFSET 0.54261 -0.00000 0.54261
									}
								}
							}
						}
					}
				}
				JOINT RightShoulder
				{
					OFFSET 0 0 0
					CHANNELS 3 Zrotation Yrotation Xrotation
					JOINT RightArm
					{
						OFFSET -3.06877 1.34672 -0.60964
						CHANNELS 3 Zrotation Yrotation Xrotation
						JOINT RightForeArm
						{
							OFFSET -5.08365 -0.00000 0.00000
							CHANNELS 3 Zrotation Yrotation Xrotation
							JOINT RightHand
							{
								OFFSET -3.35984 -0.00000 0.00000
								CHANNELS 3 Zrotation Yrotation Xrotation
								JOINT RightFingerBase
								{
									OFFSET 0 0 0
									CHANNELS 3 Zrotation Yrotation Xrotation
									JOINT RightHandIndex1
									{
										OFFSET -0.82076 -0.00000 0.00000
										CHANNELS 3 Zrotation Yrotation Xrotation
										End Site
										{
											OFFSET -0.66172 -0.00000 0.00000
										}
									}
								}
								JOINT RThumb
								{
									OFFSET 0 0 0
									CHANNELS 3 Zrotation Yrotation Xrotation
									End Site
									{
										OFFSET -0.67182 -0.00000 0.67182
									}
								}
							}
						}
					}
				}
			}
		}
	}
}
MOTION
Frames: 16
Frame Time: .0083333
1.1333 18.1969 -10.2504 0 0 0 0 0 0 -21 0 0 0 0 0 0 0 0 0 0 0 0 0 0 21 0 0 0 0 0 0 0 0 0 0 0 0 0 0 0 0 0 0 0 0 0 0 -16 0 0 21 0 0 11 0 0 0 -8 0 0 0 0 0 0 0 0 0 0 0 0 0 0 0 0 0 0 0 0 8 0 0 0 0 0 0 0 0 0 0 0 0 0 0 0 0 0
1.1333 18.1969 -10.2504 -3.9682 -4.5416 9.1838 0.0000 0.0000 0.0000 -15.5869 -2.9856 -15.0303 1.7566 8.3395 23.7500 0.5377 0.5953 -14.0810 0.0808 -1.8334 -5.0454 0.0000 0.0000 0.0000 24.5922 6.0768 -12.0962 -1.5157 -7.7746 22.0316 -0.6082 -0.1574 -14.7948 -0.2294 -3.0830 8.5099 -3.9361 0.3716 -7.6869 3.7957 0.6930 -1.3219 6.2585 0.2961 2.8461 1.2112 -0.4681 -18.9347 -4.4783 0.2669 26.6390 -1.8405 -0.3529 11.8930 -0.0000 0.0000 0.0000 -87.8527 0.2263 23.5370 21.0273 -31.8602 -6.0643 -0.0000 0.0000 -7.2369 16.1363 33.0989 8.9782 -7.1250 0.0000 -0.0000 -19.9748 63.0519 -8.9372 -0.0000 0.0000 0.0000 85.2792 3.0846 29.6504 -14.5499 23.5153 -3.0441 0.0000 -0.0000 -10.0364 -20.3143 15.8393 -5.7696 7.1250 -0.0000 -0.0000 4.9418 -13.1937 3.6975
1.1312 18.1897 -10.2494 -3.9737 -4.5453 9.1893 0.0000 0.0000 0.0000 -15.5728 -3.0224 -14.9620 1.7487 8.3218 23.6958 0.5367 0.7376 -14.1260 0.1423 -2.4307 -6.6975 0.0000 0.0000 0.0000 24.6093 6.2077 -12.1558 -1.5375 -7.8277 22.1919 -0.6189 -0.2218 -14.9472 -0.2378 -3.1385 8.6646 -3.9215 0.3886 -7.5882 3.7749 0.7136 -1.4024 6.2266 0.3128 2.7049 1.2705 -0.3176 -19.2043 -4.3572 0.4465 27.2505 -1.7928 -0.2562 12.1938 -0.0000 -0.0000 0.0000 -87.7661 0.3319 23.4453 20.9206 -31.7355 -6.0081 -0.0000 0.0000 -6.8499 15.3920 33.5521 8.6515 -7.1250 0.0000 -0.0000 -21.2167 63.2763 -9.6299 -0.0000 -0.0000 0.0000 85.3557 2.9238 29.4644 -14.3005 23.1626 -2.9453 0.0000 -0.0000 -10.1017 -20.3889 16.7581 -6.1168 7.1250 -0.0000 -0.0000 4.9395 -12.2203 3.7965
1.1292 18.1884 -10.2470 -4.0218 -4.6223 9.1592 0.0000 0.0000 0.0000 -15.5135 -2.9781 -14.9523 1.7533 8.3322 23.7277 0.5386 0.7505 -14.1560 0.1401 -2.4126 -6.6473 0.0000 0.0000 0.0000 24.6754 6.2546 -12.0806 -1.5363 -7.8249 22.1836 -0.6176 -0.2586 -14.9456 -0.2049 -2.9145 8.0407 -3.8320 0.4332 -7.5370 3.7551 0.7656 -1.4170 6.1574 0.3414 2.6556 1.1571 -0.1604 -19.7396 -3.9676 0.6187 28.1727 -1.6206 -0.1488 12.6774 -0.0000 0.0000 0.0000 -87.6940 0.3693 23.4467 20.7808 -31.5716 -5.9348 -0.0000 0.0000 -6.8910 15.5120 33.7761 8.7718 -7.1250 0.0000 -0.0000 -21.2979 63.5135 -9.7867 -0.0000 0.0000 0.0000 85.4367 2.7600 29.3426 -14.0926 22.8669 -2.8640 0.0000 -0.0000 -10.3309 -20.6257 17.7540 -6.5473 7.1250 -0.0000 -0.0000 4.8407 -11.1459 3.8277
1.1281 18.1894 -10.2431 -4.0179 -4.6685 9.1144 0.0000 0.0000 0.0000 -15.5273 -2.9799 -14.8749 1.7527 8.3308 23.7234 0.5394 0.7910 -14.1825 0.1328 -2.3491 -6.4715 0.0000 0.0000 0.0000 24.6686 6.1157 -12.0809 -1.5408 -7.8357 22.2162 -0.6253 -0.0521 -14.9624 -0.2036 -2.9052 8.0150 -3.8105 0.4573 -7.5414 3.7542 0.7958 -1.3816 6.1476 0.3548 2.6912 1.0950 -0.0468 -19.9865 -3.7987 0.7645 28.6189 -1.5310 -0.0724 12.9148 -0.0000 -0.0000 0.0000 -87.6906 0.3096 23.3414 20.5940 -31.3514 -5.8373 -0.0000 0.0000 -6.6694 15.3826 34.1605 8.7818 -7.1250 0.0000 -0.0000 -21.8162 63.8312 -10.1982 -0.0000 -0.0000 0.0000 85.4503 2.6747 29.1588 -13.9642 22.6835 -2.8143 0.0000 -0.0000 -10.1934 -20.6103 17.9976 -6.6281 7.1250 -0.0000 -0.0000 4.8659 -10.8923 3.8731
1.1260 18.1906 -10.2375 -3.9196 -4.6734 9.0770 0.0000 0.0000 0.0000 -15.6444 -2.9555 -14.8163 1.7519 8.3289 23.7177 0.5422 0.7578 -14.2050 0.1277 -2.3036 -6.3454 0.0000 0.0000 0.0000 24.5566 5.8520 -12.1292 -1.5422 -7.8393 22.2269 -0.6290 0.2484 -14.9038 -0.2548 -3.2477 8.9691 -3.9116 0.4610 -7.5546 3.7378 0.8097 -1.3835 6.1899 0.3610 2.6935 1.1261 0.0012 -19.9515 -3.8594 0.8481 28.7800 -1.5488 -0.0410 12.9770 0.0000 0.0000 0.0000 -87.7050 0.3377 23.1701 20.4082 -31.1310 -5.7409 -0.0000 0.0000 -6.2565 14.8524 34.3090 8.5014 -7.1250 0.0000 -0.0000 -22.5501 63.8248 -10.5551 0.0000 0.0000 0.0000 85.4423 2.5575 28.9114 -13.9073 22.6020 -2.7924 0.0000 -0.0000 -9.6920 -20.3063 17.5251 -6.3580 7.1250 -0.0000 -0.0000 5.0375 -11.4266 3.9553
1.1231 18.1923 -10.2322 -3.8448 -4.6777 9.0463 0.0000 0.0000 0.0000 -15.7302 -2.7757 -14.8282 1.7505 8.3259 23.7083 0.5477 0.5770 -14.2014 0.1285 -2.3110 -6.3659 0.0000 0.0000 0.0000 24.4742 5.7386 -12.1194 -1.5441 -7.8439 22.2408 -0.6214 0.3777 -14.7707 -0.3295 -3.6891 10.2037 -3.9826 0.4668 -7.5451 3.7092 0.8240 -1.4027 6.2012 0.3690 2.6655 1.1805 0.0188 -19.9814 -3.9354 0.8884 29.0708 -1.5870 -0.0296 13.1055 0.0000 -0.0000 0.0000 -87.6792 0.4395 23.2142 20.2458 -30.9373 -5.6571 -0.0000 0.0000 -6.5861 15.2162 33.8974 8.6257 -7.1250 0.0000 -0.0000 -21.7416 63.5465 -10.0172 0.0000 -0.0000 0.0000 85.4660 2.4075 28.6750 -13.9040 22.5973 -2.7911 0.0000 -0.0000 -9.2177 -19.9826 16.8290 -6.0097 7.1250 -0.0000 -0.0000 5.2134 -12.1950 4.0115
1.1217 18.1934 -10.2299 -3.7790 -4.6494 9.0342 0.0000 0.0000 0.0000 -15.8000 -2.6974 -14.8406 1.7481 8.3203 23.6913 0.5491 0.4701 -14.1771 0.1280 -2.3066 -6.3537 0.0000 0.0000 0.0000 24.4045 5.7284 -12.1193 -1.5482 -7.8536 22.2703 -0.6188 0.3889 -14.7348 -0.3776 -3.9464 10.9258 -4.0423 0.4501 -7.5461 3.7037 0.8066 -1.3952 6.2284 0.3594 2.6755 1.2356 0.0468 -20.1206 -4.0464 0.9579 29.4496 -1.6371 -0.0117 13.2964 0.0000 -0.0000 0.0000 -87.6893 0.4611 23.2068 20.0825 -30.7416 -5.5735 -0.0000 0.0000 -6.8092 15.5807 33.9143 8.8432 -7.1250 0.0000 -0.0000 -21.3555 63.6586 -9.8869 0.0000 -0.0000 0.0000 85.4378 2.3038 28.5291 -13.8705 22.5493 -2.7783 0.0000 -0.0000 -8.9481 -19.8016 16.5325 -5.8499 7.1250 -0.0000 -0.0000 5.3188 -12.5266 4.0565
1.1218 18.1922 -10.2289 -3.7245 -4.6236 9.0353 0.0000 0.0000 0.0000 -15.8591 -2.7510 -14.8187 1.7440 8.3112 23.6632 0.5453 0.5062 -14.1434 0.1232 -2.2629 -6.2329 0.0000 0.0000 0.0000 24.3470 5.7132 -12.1543 -1.5542 -7.8683 22.3148 -0.6203 0.3625 -14.7622 -0.3570 -3.8385 10.6227 -4.0586 0.4305 -7.5571 3.6998 0.7821 -1.3926 6.2316 0.3465 2.6875 1.2852 0.1065 -20.1850 -4.1341 1.0664 29.7475 -1.6685 0.0268 13.4404 0.0000 0.0000 0.0000 -87.7222 0.4774 23.0533 19.8784 -30.4956 -5.4695 -0.0000 0.0000 -6.6897 15.5679 33.9132 8.8354 -7.1250 0.0000 -0.0000 -21.3686 63.6542 -9.8910 0.0000 0.0000 0.0000 85.3831 2.1545 28.5158 -13.8102 22.4627 -2.7552 0.0000 -0.0000 -8.8598 -19.7993 16.7013 -5.9068 7.1250 -0.0000 -0.0000 5.3287 -12.3504 4.0838
1.1215 18.1882 -10.2276 -3.6926 -4.7035 9.0107 0.0000 0.0000 0.0000 -15.9076 -2.6939 -14.7788 1.7414 8.3052 23.6450 0.5431 0.5655 -14.1386 0.1253 -2.2818 -6.2851 0.0000 0.0000 0.0000 24.3094 5.7786 -12.1271 -1.5592 -7.8802 22.3509 -0.6170 0.3108 -14.7386 -0.3176 -3.6225 10.0171 -4.0409 0.4340 -7.5610 3.6810 0.7860 -1.3909 6.2019 0.3485 2.6914 1.3315 0.1909 -20.0766 -4.1725 1.1905 29.8746 -1.6723 0.0810 13.4763 0.0000 0.0000 0.0000 -87.7148 0.5463 22.9102 19.6374 -30.2030 -5.3477 -0.0000 0.0000 -6.7158 15.5771 33.6765 8.7873 -7.1250 0.0000 -0.0000 -21.1307 63.4394 -9.6698 0.0000 0.0000 0.0000 85.3735 1.9595 28.6077 -13.7585 22.3885 -2.7355 0.0000 -0.0000 -8.9412 -20.0008 16.9800 -6.0676 7.1250 -0.0000 -0.0000 5.2093 -12.0348 4.0257
1.1206 18.1863 -10.2243 -3.6636 -4.8339 8.9552 0.0000 0.0000 0.0000 -15.9562 -2.6387 -14.6907 1.7419 8.3065 23.6489 0.5447 0.6671 -14.2001 0.1301 -2.3250 -6.4047 0.0000 0.0000 0.0000 24.2719 5.8700 -12.0344 -1.5609 -7.8845 22.3638 -0.6187 0.3414 -14.7495 -0.3374 -3.7330 10.3268 -4.0409 0.4271 -7.5751 3.6833 0.7768 -1.3767 6.2040 0.3428 2.7153 1.3388 0.2851 -19.9081 -4.2115 1.3435 30.0037 -1.6644 0.1437 13.5014 0.0000 -0.0000 0.0000 -87.7283 0.6623 22.6879 19.4167 -29.9331 -5.2371 -0.0000 0.0000 -6.5969 15.3278 33.7578 8.6600 -7.1250 0.0000 -0.0000 -21.4836 63.4482 -9.8433 0.0000 -0.0000 0.0000 85.3460 1.7742 28.7277 -13.7088 22.3169 -2.7166 0.0000 -0.0000 -9.0655 -20.2254 17.1760 -6.2094 7.1250 -0.0000 -0.0000 5.0711 -11.8022 3.9425
1.1205 18.1871 -10.2215 -3.7204 -4.8856 8.9176 0.0000 0.0000 0.0000 -15.8959 -2.6262 -14.6252 1.7425 8.3078 23.6529 0.5488 0.6987 -14.2652 0.1233 -2.2632 -6.2336 0.0000 0.0000 0.0000 24.3357 5.9109 -11.9592 -1.5621 -7.8873 22.3723 -0.6234 0.3849 -14.7915 -0.3818 -3.9680 10.9867 -3.8978 0.4326 -7.6238 3.6783 0.7735 -1.3296 6.1178 0.3388 2.7940 1.3572 0.3408 -19.8906 -4.2475 1.4398 30.2591 -1.6708 0.1811 13.6107 0.0000 0.0000 0.0000 -87.7081 0.6851 22.4985 19.1763 -29.6372 -5.1177 -0.0000 0.0000 -6.3902 15.1432 33.6732 8.5337 -7.1250 0.0000 -0.0000 -21.6058 63.3222 -9.8382 0.0000 0.0000 0.0000 85.3851 1.6840 28.5915 -13.6526 22.2359 -2.6952 0.0000 -0.0000 -8.9327 -20.2337 17.0600 -6.1718 7.1250 -0.0000 -0.0000 5.0591 -11.9228 3.9205
1.1227 18.1860 -10.2211 -3.7918 -4.9064 8.9195 0.0000 0.0000 0.0000 -15.8266 -2.5123 -14.6320 1.7361 8.2933 23.6084 0.5530 0.5892 -14.2745 0.1221 -2.2524 -6.2037 0.0000 0.0000 0.0000 24.4100 5.8713 -11.9462 -1.5581 -7.8777 22.3433 -0.6225 0.4179 -14.7708 -0.3744 -3.9300 10.8797 -3.7285 0.4461 -7.6610 3.6662 0.7787 -1.3020 6.0093 0.3408 2.8455 1.3768 0.3742 -19.9475 -4.2784 1.5036 30.5725 -1.6827 0.2041 13.7606 -0.0000 -0.0000 0.0000 -87.6798 0.6866 22.3524 18.9093 -29.3059 -4.9864 -0.0000 0.0000 -6.2182 15.1998 33.4882 8.5257 -7.1250 0.0000 -0.0000 -21.3675 63.1673 -9.6470 -0.0000 -0.0000 0.0000 85.4423 1.5983 28.3686 -13.5962 22.1546 -2.6740 0.0000 -0.0000 -8.6864 -20.2011 16.8618 -6.0921 7.1250 -0.0000 -0.0000 5.0699 -12.1343 3.9066
1.1276 18.1855 -10.2190 -3.7430 -4.9242 8.9014 0.0000 0.0000 0.0000 -15.9096 -2.4345 -14.6181 1.7322 8.2845 23.5816 0.5559 0.5160 -14.2815 0.1368 -2.3843 -6.5690 0.0000 0.0000 0.0000 24.3346 5.7343 -11.9504 -1.5535 -7.8666 22.3098 -0.6215 0.5246 -14.7244 -0.3534 -3.8192 10.5686 -3.7220 0.4154 -7.6201 3.6682 0.7363 -1.3225 6.0024 0.3212 2.8070 1.3906 0.4481 -19.8881 -4.3489 1.6395 30.7909 -1.6942 0.2536 13.8486 0.0000 0.0000 0.0000 -87.7360 0.8095 22.0948 18.6580 -28.9915 -4.8640 -0.0000 0.0000 -6.0532 15.2072 33.4970 8.5319 -7.1250 0.0000 -0.0000 -21.3678 63.1772 -9.6521 0.0000 0.0000 0.0000 85.4027 1.4374 28.1788 -13.5156 22.0379 -2.6436 0.0000 -0.0000 -8.3145 -20.1048 16.9191 -6.0806 7.1250 -0.0000 -0.0000 5.1370 -12.0860 3.9639
1.1307 18.1929 -10.2153 -3.6750 -4.9738 8.8755 0.0000 0.0000 0.0000 -16.0116 -2.4278 -14.5579 1.7276 8.2740 23.5496 0.5543 0.5751 -14.2851 0.1459 -2.4618 -6.7837 0.0000 0.0000 0.0000 24.2380 5.6825 -11.9091 -1.5487 -7.8550 22.2745 -0.6185 0.5966 -14.6667 -0.3463 -3.7813 10.4622 -3.7527 0.3925 -7.6161 3.6679 0.7079 -1.3105 6.0170 0.3061 2.8205 1.4295 0.5006 -19.8060 -4.4760 1.7527 30.9496 -1.7355 0.2888 13.9064 0.0000 -0.0000 0.0000 -87.7960 0.8873 21.8437 18.4088 -28.6775 -4.7438 -0.0000 0.0000 -5.9458 15.0536 33.4676 8.4365 -7.1250 0.0000 -0.0000 -21.5088 63.1104 -9.6851 0.0000 -0.0000 0.0000 85.3488 1.3256 27.9446 -13.4152 21.8925 -2.6061 0.0000 -0.0000 -7.9860 -19.8462 17.1104 -6.0616 7.1250 -0.0000 -0.0000 5.3187 -11.9172 4.1240
1.1313 18.1916 -10.2146 -3.7084 -5.0423 8.8699 0.0000 0.0000 0.0000 -15.9821 -2.3955 -14.5316 1.7259 8.2701 23.5374 0.5538 0.6330 -14.3022 0.1444 -2.4490 -6.7483 0.0000 0.0000 0.0000 24.2671 5.7613 -11.8555 -1.5458 -7.8480 22.2534 -0.6173 0.5893 -14.6542 -0.3452 -3.7751 10.4448 -3.7058 0.4063 -7.6457 3.6872 0.7221 -1.2733 6.0132 0.3111 2.8743 1.4735 0.5275 -19.8068 -4.6103 1.8327 31.1953 -1.7891 0.3077 14.0196 0.0000 0.0000 0.0000 -87.8372 0.9112 21.6818 18.1729 -28.3780 -4.6311 -0.0000 0.0000 -5.8719 14.8697 33.4354 8.3231 -7.1250 0.0000 -0.0000 -21.6798 63.0329 -9.7265 0.0000 0.0000 0.0000 85.2992 1.2610 27.8037 -13.3465 21.7927 -2.5805 0.0000 -0.0000 -8.0488 -19.7056 17.1242 -6.0201 7.1250 -0.0000 -0.0000 5.4126 -11.9198 4.1972
